<?xml version="1.0" encoding="utf-8"?>
<!-- Generator: Adobe Illustrator 16.0.0, SVG Export Plug-In . SVG Version: 6.00 Build 0)  -->
<!DOCTYPE svg PUBLIC "-//W3C//DTD SVG 1.1//EN" "http://www.w3.org/Graphics/SVG/1.1/DTD/svg11.dtd">
<svg version="1.1" id="Layer_1" xmlns="http://www.w3.org/2000/svg" xmlns:xlink="http://www.w3.org/1999/xlink" x="0px" y="0px"
	 width="123.001px" height="30.167px" viewBox="0 -2.333 123.001 30.167" enable-background="new 0 -2.333 123.001 30.167"
	 xml:space="preserve">
<rect display="none" fill="#2B2B2B" width="70" height="23"/>
<rect x="70" display="none" fill="#7C7C7C" width="27" height="23"/>
<rect x="97" display="none" fill="#FFFFFF" width="27" height="23"/>
<g>
	<path fill="#FFFFFF" d="M12.087-1.865V11.3c0,4.613-2.146,6.355-6.248,6.355c-4.184,0-5.819-2.198-5.819-6.194v-0.403h4.505v0.938
		c0,1.826,0.536,2.28,1.287,2.28c0.75,0,1.288-0.454,1.288-2.28V-1.865H12.087z"/>
	<path fill="#FFFFFF" d="M13.049,2.773h4.827v9.573c0,1.208,0.322,1.717,1.18,1.717c0.858,0,1.18-0.509,1.18-1.717V2.773h4.826
		v14.508h-4.666V15.51h-0.054c-0.617,1.422-1.851,2.146-3.512,2.146c-2.118,0-3.782-0.831-3.782-3.941V2.773z"/>
	<path fill="#FFFFFF" d="M33.239,17.281c-0.161-0.51-0.215-1.048-0.294-1.637H32.89c-0.536,1.287-1.822,2.011-3.27,2.011
		c-2.896,0-4.022-1.77-4.022-4.263c0-2.682,0.938-3.942,4.022-4.667l1.902-0.456c1.047-0.242,1.422-0.697,1.422-1.583
		c0-0.885-0.403-1.339-1.234-1.339c-0.913,0-1.341,0.401-1.368,1.93h-4.182c0-4.156,3.351-4.88,5.55-4.88
		c3.379,0,5.738,0.884,5.738,4.666v7.079c0,1.341,0.054,2.385,0.457,3.138H33.239z M32.944,12.023v-1.742H32.89
		c-0.268,0.375-0.938,0.348-1.635,0.67c-0.75,0.348-0.992,0.911-0.992,1.876c0,0.966,0.456,1.583,1.179,1.583
		C32.516,14.411,32.944,13.607,32.944,12.023z"/>
	<path fill="#FFFFFF" d="M38.788,2.773h4.667v1.771h0.053c0.617-1.421,1.85-2.145,3.513-2.145c2.118,0,3.781,0.831,3.781,3.941
		v10.941h-4.826V7.708c0-1.207-0.322-1.716-1.181-1.716s-1.181,0.509-1.181,1.716v9.574h-4.826V2.773z"/>
</g>
<g>
	<path fill="#FFFFFF" d="M62.308-2.241c5.095,0,6.838,2.788,6.838,9.948c0,7.158-1.743,9.946-6.838,9.946
		c-5.094,0-6.837-2.788-6.837-9.946C55.471,0.547,57.213-2.241,62.308-2.241z M62.308,14.276c1.529,0,1.689-1.395,1.689-6.569
		c0-5.175-0.16-6.57-1.689-6.57c-1.527,0-1.688,1.395-1.688,6.57C60.62,12.882,60.78,14.276,62.308,14.276z"/>
	<path fill="#FFFFFF" d="M69.788,2.773h4.665v2.306h0.053c0.537-1.742,1.824-2.68,3.246-2.68h0.776v4.503
		c-0.43-0.08-0.803-0.106-1.206-0.106c-1.715,0-2.708,0.669-2.708,2.574v7.912h-4.826V2.773z"/>
	<path fill="#FFFFFF" d="M85.659-1.865h4.827v19.146h-4.665v-1.987H85.77c-0.591,1.61-1.585,2.359-3.301,2.359
		c-3.244,0-4.343-2.574-4.343-7.936c0-5.469,1.77-7.319,4.451-7.319c1.367,0,2.547,0.535,3.031,2.011h0.051V-1.865z M84.321,14.063
		c1.099,0,1.338-0.912,1.338-4.022c0-3.138-0.239-4.048-1.338-4.048c-1.127,0-1.368,0.91-1.368,4.048
		C82.953,13.15,83.194,14.063,84.321,14.063z"/>
	<path fill="#FFFFFF" d="M96.092,10.844v1.904c0,1.557,0.642,1.959,1.311,1.959c0.858,0,1.369-0.538,1.369-2.522h4.344
		c-0.027,1.744-0.458,3.109-1.367,4.049c-0.913,0.938-2.307,1.42-4.318,1.42c-4.663,0-6.167-2.09-6.167-7.613
		c0-5.549,1.824-7.642,6.167-7.642c3.86,0,5.819,1.716,5.819,6.971v1.475H96.092z M98.744,7.573c0-1.528-0.321-2.225-1.342-2.225
		c-0.991,0-1.311,0.696-1.311,2.225v0.644h2.652V7.573z"/>
	<path fill="#FFFFFF" d="M103.863-1.865h4.828v3.592h-4.828V-1.865z M103.863,2.773h4.828v14.508h-4.828V2.773z"/>
	<path fill="#FFFFFF" d="M108.982,2.773h4.829l1.447,3.888l1.661-3.888h4.829l-3.647,7.025l3.834,7.483h-4.827l-1.688-4.373
		l-1.769,4.373h-4.828l3.834-7.483L108.982,2.773z"/>
</g>
<g>
	<path fill="#FFFFFF" d="M20.49,21.009h5.404v1.415h-3.638v1.188h3.324v1.368h-3.324v1.289h3.732v1.52H20.49V21.009z"/>
	<path fill="#FFFFFF" d="M27.751,21.009h1.766v5.26h3.163v1.52h-4.929V21.009z"/>
	<path fill="#FFFFFF" d="M38.068,21.009h2.603l1.167,4.521h0.019l1.169-4.521h2.601v6.779h-1.661v-5.146h-0.02l-1.425,5.146h-1.348
		l-1.425-5.146H39.73v5.146h-1.663V21.009z"/>
	<path fill="#FFFFFF" d="M47.606,21.009h5.404v1.415h-3.637v1.188h3.323v1.368h-3.323v1.289h3.732v1.52h-5.499V21.009z"/>
	<path fill="#FFFFFF" d="M54.849,21.009h1.813l2.356,4.181h0.018v-4.181H60.7v6.779h-1.814l-2.356-4.225h-0.019v4.225h-1.662V21.009
		z"/>
	<path fill="#FFFFFF" d="M68.034,22.529h-2.021v5.259h-1.766v-5.259h-2.023v-1.521h5.811V22.529z"/>
	<path fill="#FFFFFF" d="M70.54,21.009h1.796l2.534,6.779h-1.843l-0.417-1.216h-2.364l-0.429,1.216h-1.813L70.54,21.009z
		 M70.653,25.264h1.539l-0.749-2.375h-0.021L70.653,25.264z"/>
	<path fill="#FFFFFF" d="M76.139,21.009h1.765v5.26h3.163v1.52h-4.928V21.009z"/>
	<path fill="#FFFFFF" d="M82.696,21.009h1.767v6.779h-1.767V21.009z"/>
	<path fill="#FFFFFF" d="M87.823,25.511c0.038,0.797,0.535,1.055,1.282,1.055c0.532,0,1.083-0.19,1.083-0.693
		c0-0.599-0.968-0.713-1.948-0.988c-0.966-0.275-1.983-0.713-1.983-1.957c0-1.479,1.492-2.061,2.765-2.061
		c1.346,0,2.705,0.656,2.715,2.186h-1.766c0.027-0.618-0.552-0.818-1.092-0.818c-0.384,0-0.856,0.134-0.856,0.578
		c0,0.522,0.978,0.618,1.965,0.893c0.981,0.276,1.969,0.732,1.969,1.958c0,1.719-1.466,2.27-2.956,2.27
		c-1.556,0-2.935-0.683-2.942-2.421H87.823z"/>
	<path fill="#FFFFFF" d="M98.911,22.529h-2.021v5.259h-1.768v-5.259h-2.024v-1.521h5.813V22.529z"/>
	<path fill="#FFFFFF" d="M101.414,21.009h1.796l2.535,6.779h-1.844l-0.415-1.216h-2.366l-0.429,1.216h-1.813L101.414,21.009z
		 M101.528,25.264h1.538l-0.747-2.375h-0.021L101.528,25.264z"/>
</g>
</svg>
